<?xml version="1.0" encoding="utf-8"?>
<!-- Generator: Adobe Illustrator 25.0.1, SVG Export Plug-In . SVG Version: 6.00 Build 0)  -->
<svg version="1.1" id="Capa_1" xmlns="http://www.w3.org/2000/svg" xmlns:xlink="http://www.w3.org/1999/xlink" x="0px" y="0px"
	 viewBox="0 0 512 512" style="enable-background:new 0 0 512 512;" xml:space="preserve">
<style type="text/css">
	.st0{fill:#DAD8D2;stroke:#DAD8D2;stroke-width:4;stroke-miterlimit:10;}
</style>
<g>
	<g>
		<path class="st0" d="M327.9,190.4h-27.5c-2,0-3.7-1.3-4.3-3.1l-2.9-8.7c-3.1-9.4-11.9-15.7-21.7-15.7h-42.9
			c-9.9,0-18.6,6.3-21.7,15.7l-2.9,8.7c-0.6,1.9-2.4,3.1-4.4,3.1h-27.5c-17.7,0-32.1,14.4-32.1,32.1V305c0,17.7,14.4,32.1,32.1,32.1
			h155.8c17.7,0,32.1-14.4,32.1-32.1v-82.5C360,204.8,345.6,190.4,327.9,190.4z M350.8,305c0,12.6-10.3,22.9-22.9,22.9H172.1
			c-12.6,0-22.9-10.3-22.9-22.9v-82.5c0-12.6,10.3-22.9,22.9-22.9h27.5c5.9,0,11.2-3.8,13-9.4l2.9-8.7c1.9-5.6,7.1-9.4,13-9.4h42.9
			c5.9,0,11.2,3.8,13,9.4l2.9,8.7c1.9,5.6,7.1,9.4,13,9.4h27.5c12.6,0,22.9,10.3,22.9,22.9L350.8,305L350.8,305z"/>
	</g>
</g>
<g>
	<g>
		<path class="st0" d="M250,205.7c-30.3,0-55,24.7-55,55s24.7,55,55,55s55-24.7,55-55S280.3,205.7,250,205.7z M250,306.6
			c-25.3,0-45.8-20.6-45.8-45.8s20.6-45.8,45.8-45.8s45.8,20.6,45.8,45.8C295.8,286,275.3,306.6,250,306.6z"/>
	</g>
</g>
<g>
	<g>
		<path class="st0" d="M250,224.1c-20.2,0-36.7,16.4-36.7,36.7c0,2.5,2.1,4.6,4.6,4.6s4.6-2.1,4.6-4.6c0-15.2,12.3-27.5,27.5-27.5
			c2.5,0,4.6-2.1,4.6-4.6S252.5,224.1,250,224.1z"/>
	</g>
</g>
</svg>
