<?xml version="1.0" encoding="utf-8"?>
<!-- Generator: Adobe Illustrator 25.0.1, SVG Export Plug-In . SVG Version: 6.00 Build 0)  -->
<svg version="1.1" id="Capa_1" xmlns="http://www.w3.org/2000/svg" xmlns:xlink="http://www.w3.org/1999/xlink" x="0px" y="0px"
	 viewBox="0 0 512 512" style="enable-background:new 0 0 512 512;" xml:space="preserve">
<style type="text/css">
	.st0{fill:#DAD8D2;}
</style>
<g>
	<path class="st0" d="M275.8,245c13.9,0,25.2-11.3,25.2-25.2s-11.3-25.3-25.2-25.3c-13.9,0-25.2,11.3-25.2,25.2S261.9,245,275.8,245
		z M275.8,206.6c7.2,0,13.1,5.9,13.1,13.2s-5.9,13.2-13.1,13.2s-13.1-5.9-13.1-13.2S268.5,206.6,275.8,206.6z"/>
	<path class="st0" d="M352.8,170.4H159.2c-3.3,0-6,2.7-6,6v159.1v0c0,2.3,1.9,6,6,6c141.1-0.1,180.3,0,193.6,0c3.3,0,6-2.7,6-6
		c0-4.5,0-155.1,0-159.1C358.8,173.1,356.1,170.4,352.8,170.4L352.8,170.4z M346.8,182.5v96.2L320.2,252c-2.4-2.4-6.2-2.4-8.5,0
		l-35.9,36l-34.6-34.7c-2.4-2.4-6.2-2.4-8.5,0l-67.5,67.7V182.5H346.8z M173.7,329.5l63.2-63.4l63.1,63.4L173.7,329.5z M346.8,329.5
		h-29.6l-32.9-33l31.6-31.7l30.8,31V329.5z"/>
</g>
</svg>
