<?xml version="1.0" encoding="utf-8"?>
<!-- Generator: Adobe Illustrator 25.0.1, SVG Export Plug-In . SVG Version: 6.00 Build 0)  -->
<svg version="1.1" id="Layer_1" xmlns="http://www.w3.org/2000/svg" xmlns:xlink="http://www.w3.org/1999/xlink" x="0px" y="0px"
	 viewBox="0 0 50 50" style="enable-background:new 0 0 50 50;" xml:space="preserve">
<style type="text/css">
	.st0{fill:#DAD8D2;}
</style>
<g>
	<path class="st0" d="M25,0C11.2,0,0,11.2,0,25s11.2,25,25,25s25-11.2,25-25S38.8,0,25,0z M24.4,33l-2.6,2.6c-1.8,1.8-4.8,1.8-6.6,0
		c-1.8-1.8-1.8-4.8,0-6.6l5.3-5.3c1.8-1.8,4.8-1.8,6.6,0c0.4,0.4,0.4,1,0,1.3s-1,0.4-1.3,0c-1.1-1.1-2.9-1.1-4,0l-5.3,5.3
		c-1.1,1.1-1.1,2.9,0,4c1.1,1.1,2.9,1.1,4,0l2.6-2.6c0.4-0.4,1-0.4,1.3,0S24.8,32.6,24.4,33z M34.8,22.6L29,28.4
		c-1.8,1.8-4.8,1.8-6.6,0c-0.4-0.4-0.4-1,0-1.3s1-0.4,1.3,0c1.1,1.1,2.9,1.1,4,0l5.8-5.8c1.1-1.1,1.1-2.9,0-4s-2.9-1.1-4,0l-3.2,3.2
		c-0.4,0.4-1,0.4-1.3,0s-0.4-1,0-1.3l3.2-3.2c1.8-1.8,4.8-1.8,6.6,0C36.6,17.8,36.6,20.8,34.8,22.6z"/>
</g>
</svg>
