{
	"asset":{
		"generator":"Created using the official Cinema 4D glTF Exporter 1.000x284978",
		"version":"2.0"
	},
	"scenes":[{
		"nodes":[0,
		2,
		7]
	}],
	"bufferViews":[{
		"buffer":0,
		"byteOffset":0,
		"byteLength":31680,
		"target":34963
	},
	{
		"buffer":0,
		"byteOffset":31680,
		"byteLength":31704,
		"target":34962
	},
	{
		"buffer":1,
		"byteOffset":0,
		"byteLength":14592,
		"target":34963
	},
	{
		"buffer":1,
		"byteOffset":14592,
		"byteLength":14988,
		"target":34962
	},
	{
		"buffer":2,
		"byteOffset":0,
		"byteLength":120,
		"target":34963
	},
	{
		"buffer":2,
		"byteOffset":120,
		"byteLength":144,
		"target":34962
	},
	{
		"buffer":3,
		"byteOffset":0,
		"byteLength":176640,
		"target":34963
	},
	{
		"buffer":3,
		"byteOffset":176640,
		"byteLength":177612,
		"target":34962
	},
	{
		"buffer":4,
		"byteOffset":0,
		"byteLength":145920,
		"target":34963
	},
	{
		"buffer":4,
		"byteOffset":145920,
		"byteLength":146892,
		"target":34962
	},
	{
		"buffer":5,
		"byteOffset":0,
		"byteLength":145920,
		"target":34963
	},
	{
		"buffer":5,
		"byteOffset":145920,
		"byteLength":146892,
		"target":34962
	},
	{
		"buffer":6,
		"byteOffset":0,
		"byteLength":145920,
		"target":34963
	},
	{
		"buffer":6,
		"byteOffset":145920,
		"byteLength":146892,
		"target":34962
	}],
	"nodes":[{
		"name":"Trunk",
		"translation":[-3.443662643432617,
		6.791526794433594,
		6.92799563390072e-17],
		"rotation":[0.7071067690849304,
		0.0,
		0.0,
		-0.7071067690849304],
		"scale":[1.0,
		1.0,
		1.0],
		"children":[1]
	},
	{
		"name":"Trunk",
		"translation":[3.4311301708221437,
		-0.06271655857563019,
		-5.71136999130249],
		"rotation":[-0.5,
		0.5,
		-0.5,
		0.5],
		"scale":[1.0,
		1.0,
		1.0],
		"mesh":0
	},
	{
		"name":"Star",
		"translation":[-1.6568958759307862,
		7.204909324645996,
		0.0],
		"rotation":[0.0,
		0.0,
		0.0,
		-1.0],
		"scale":[1.0,
		1.0,
		1.0],
		"children":[3,
		5]
	},
	{
		"name":"Holder",
		"translation":[-1.7867668867111207,
		-1.5448100566864014,
		0.0],
		"rotation":[0.7071067690849304,
		0.0,
		0.0,
		-0.7071067690849304],
		"scale":[1.0,
		1.0,
		1.0],
		"children":[4]
	},
	{
		"name":"Cone",
		"translation":[3.5735273361206056,
		-0.0023722632322460415,
		2.8224332332611086],
		"rotation":[-0.7071067690849304,
		0.0,
		0.0,
		-0.7071067690849304],
		"scale":[1.0,
		1.0,
		1.0],
		"mesh":1
	},
	{
		"name":"Star",
		"translation":[1.7893211841583253,
		1.6288070678710938,
		0.0],
		"rotation":[0.0,
		0.0,
		0.015199447050690651,
		-0.9998844861984253],
		"scale":[1.0,
		1.0,
		1.0],
		"children":[6]
	},
	{
		"name":"Extrude",
		"translation":[1.0689300360976114e-16,
		4.860398466692568e-17,
		0.0],
		"rotation":[-0.6963642239570618,
		-0.12278780341148377,
		-0.12278780341148377,
		-0.6963642239570618],
		"scale":[1.0,
		1.0,
		1.0],
		"mesh":2
	},
	{
		"name":"Tree",
		"translation":[-3.443662643432617,
		5.660099029541016,
		0.0],
		"rotation":[0.5,
		0.5,
		0.5,
		-0.5],
		"scale":[1.0,
		1.0,
		1.0],
		"children":[8]
	},
	{
		"name":"Null.1",
		"translation":[1.8620166460813675e-16,
		3.571744680404663,
		0.5308408737182617],
		"rotation":[-0.5,
		-0.5,
		-0.5,
		-0.5],
		"scale":[1.0,
		1.0,
		1.0],
		"children":[9,
		10,
		11,
		12]
	},
	{
		"name":"1",
		"translation":[-1.34812930086937e-16,
		1.6708214282989503,
		-1.3900069353575882e-32],
		"rotation":[0.0,
		3.0616171314629199e-17,
		0.0,
		-1.0],
		"scale":[1.0,
		1.0,
		1.0],
		"mesh":3
	},
	{
		"name":"2",
		"translation":[-7.669709960331299e-17,
		0.7217178344726563,
		-1.0341500448119355e-32],
		"rotation":[0.0,
		0.0,
		0.0,
		-1.0],
		"scale":[1.0,
		1.0,
		1.0],
		"mesh":4
	},
	{
		"name":"3",
		"translation":[-1.3575026468730248e-17,
		-0.21241441369056703,
		-6.476388329907301e-33],
		"rotation":[0.0,
		0.0,
		0.0,
		-1.0],
		"scale":[1.0,
		1.0,
		1.0],
		"mesh":5
	},
	{
		"name":"4",
		"translation":[4.4955549065305397e-17,
		-1.7818403244018555,
		3.042425131715799e-33],
		"rotation":[0.0,
		0.0,
		0.0,
		-1.0],
		"scale":[1.0,
		1.0,
		1.0],
		"mesh":6
	}],
	"meshes":[{
		"name":"Trunk",
		"primitives":[{
			"attributes":{
				"POSITION":1
			},
			"indices":0
		}]
	},
	{
		"name":"Cone",
		"primitives":[{
			"attributes":{
				"POSITION":3
			},
			"indices":2
		}]
	},
	{
		"name":"Extrude",
		"primitives":[{
			"attributes":{
				"POSITION":5
			},
			"indices":4
		}]
	},
	{
		"name":"1",
		"primitives":[{
			"attributes":{
				"POSITION":7
			},
			"indices":6
		}]
	},
	{
		"name":"2",
		"primitives":[{
			"attributes":{
				"POSITION":9
			},
			"indices":8
		}]
	},
	{
		"name":"3",
		"primitives":[{
			"attributes":{
				"POSITION":11
			},
			"indices":10
		}]
	},
	{
		"name":"4",
		"primitives":[{
			"attributes":{
				"POSITION":13
			},
			"indices":12
		}]
	}],
	"accessors":[{
		"bufferView":0,
		"type":"SCALAR",
		"componentType":5123,
		"count":15840,
		"byteOffset":0,
		"min":[0],
		"max":[2641]
	},
	{
		"bufferView":1,
		"type":"VEC3",
		"componentType":5126,
		"count":2642,
		"byteOffset":0,
		"min":[-0.5949565172195435,
		-1.0,
		-0.5904043316841126],
		"max":[0.5949565172195435,
		1.0,
		0.6055354475975037]
	},
	{
		"bufferView":2,
		"type":"SCALAR",
		"componentType":5123,
		"count":7296,
		"byteOffset":0,
		"min":[0],
		"max":[1248]
	},
	{
		"bufferView":3,
		"type":"VEC3",
		"componentType":5126,
		"count":1249,
		"byteOffset":0,
		"min":[-0.16835607588291169,
		-0.15094231069087983,
		-0.16835607588291169],
		"max":[0.16835607588291169,
		0.17272338271141053,
		0.16835607588291169]
	},
	{
		"bufferView":4,
		"type":"SCALAR",
		"componentType":5123,
		"count":60,
		"byteOffset":0,
		"min":[0],
		"max":[11]
	},
	{
		"bufferView":5,
		"type":"VEC3",
		"componentType":5126,
		"count":12,
		"byteOffset":0,
		"min":[-0.404508501291275,
		-0.14676567912101746,
		-0.4755282700061798],
		"max":[0.5,
		0.14676567912101746,
		0.4755282700061798]
	},
	{
		"bufferView":6,
		"type":"SCALAR",
		"componentType":5123,
		"count":88320,
		"byteOffset":0,
		"min":[0],
		"max":[14800]
	},
	{
		"bufferView":7,
		"type":"VEC3",
		"componentType":5126,
		"count":14801,
		"byteOffset":0,
		"min":[-0.7065140008926392,
		-0.9896894693374634,
		-0.7435961961746216],
		"max":[0.753466010093689,
		0.6241611242294312,
		0.7435961961746216]
	},
	{
		"bufferView":8,
		"type":"SCALAR",
		"componentType":5123,
		"count":72960,
		"byteOffset":0,
		"min":[0],
		"max":[12240]
	},
	{
		"bufferView":9,
		"type":"VEC3",
		"componentType":5126,
		"count":12241,
		"byteOffset":0,
		"min":[-1.2758185863494874,
		-1.6522189378738404,
		-1.2777940034866334],
		"max":[1.2758185863494874,
		1.5300564765930176,
		1.2777940034866334]
	},
	{
		"bufferView":10,
		"type":"SCALAR",
		"componentType":5123,
		"count":72960,
		"byteOffset":0,
		"min":[0],
		"max":[12240]
	},
	{
		"bufferView":11,
		"type":"VEC3",
		"componentType":5126,
		"count":12241,
		"byteOffset":0,
		"min":[-1.9229860305786133,
		-2.4036478996276857,
		-1.9296025037765504],
		"max":[1.9229860305786133,
		2.1473140716552736,
		1.9296025037765504]
	},
	{
		"bufferView":12,
		"type":"SCALAR",
		"componentType":5123,
		"count":72960,
		"byteOffset":0,
		"min":[0],
		"max":[12240]
	},
	{
		"bufferView":13,
		"type":"VEC3",
		"componentType":5126,
		"count":12241,
		"byteOffset":0,
		"min":[-2.7006804943084719,
		-3.025423526763916,
		-2.7033028602600099],
		"max":[2.7006804943084719,
		2.8618578910827638,
		2.7033028602600099]
	}],
	"buffers":[{
		"uri":"data:application/octet-stream;base64,",
		"byteLength":63384
	},
	{
		"uri":"data:application/octet-stream;base64,",
		"byteLength":29580
	},
	{
		"uri":"data:application/octet-stream;base64,",
		"byteLength":264
	},
	{
		"uri":"data:application/octet-stream;base64,",
		"byteLength":354252
	},
	{
		"uri":"data:application/octet-stream;base64,",
		"byteLength":292812
	},
	{
		"uri":"data:application/octet-stream;base64,",
		"byteLength":292812
	},
	{
		"uri":"data:application/octet-stream;base64,",
		"byteLength":292812
	}]
}