<?xml version="1.0" encoding="utf-8"?>
<!-- Generator: Adobe Illustrator 25.0.1, SVG Export Plug-In . SVG Version: 6.00 Build 0)  -->
<svg version="1.1" id="Color" xmlns="http://www.w3.org/2000/svg" xmlns:xlink="http://www.w3.org/1999/xlink" x="0px" y="0px"
	 viewBox="0 0 512 512" style="enable-background:new 0 0 512 512;" xml:space="preserve">
<style type="text/css">
	.st0{fill:#DAD8D2;}
</style>
<g>
	<path class="st0" d="M255.2,8.5c33.5,0,66,6.6,96.6,19.5c29.6,12.5,56.1,30.4,78.9,53.2s40.7,49.4,53.2,78.9
		c12.9,30.6,19.5,63.1,19.5,96.6s-6.6,66-19.5,96.6c-12.5,29.6-30.4,56.1-53.2,78.9s-49.4,40.7-78.9,53.2
		c-30.6,12.9-63.1,19.5-96.6,19.5s-66-6.6-96.6-19.5c-29.6-12.5-56.1-30.4-78.9-53.2S39,382.9,26.5,353.4
		C13.6,322.8,7,290.3,7,256.8s6.6-66,19.5-96.6C39,130.6,56.9,104,79.7,81.2s49.4-40.7,78.9-53.2C189.2,15.1,221.7,8.5,255.2,8.5
		 M255.2,1.5C114.3,1.5,0,115.8,0,256.8S114.3,512,255.2,512s255.2-114.3,255.2-255.2S396.2,1.5,255.2,1.5L255.2,1.5z"/>
</g>
<g>
	<path class="st0" d="M334.4,330.9c-1.1,2.2-3.4,3.7-5.9,3.7l-58.4,0.2v15.4c0,6.1-3.5,11-7.9,11h-6.3h-6.3c-4.4,0-7.9-4.9-7.9-11
		V335v0l-57.3,0.2l-0.8,0h0c0,0,0,0,0,0l0,0c-2.5,0-4.7-1.4-5.9-3.6c-1.2-2.2-0.9-4.9,0.5-6.9l23.2-31.7l7.7-10.5h0h-16.9
		c-0.8,0-1.5-0.1-2.2-0.4c-0.4-0.2-0.8-0.4-1.2-0.6c-0.3-0.2-0.5-0.3-0.7-0.5c-0.7-0.6-1.3-1.3-1.7-2.2c-0.5-1-0.7-2.1-0.7-3.1
		c0-1.4,0.5-2.7,1.3-3.8l0.1-0.1l32-42h0h-9.3c-2.5,0-4.7-1.4-5.9-3.5c-0.1-0.3-0.3-0.6-0.4-0.8c-0.1-0.4-0.3-0.9-0.3-1.3
		c0-0.3-0.1-0.6-0.1-0.9c0-1.3,0.4-2.7,1.2-3.8l46.2-66c0,0,0,0,0,0c1.2-1.8,3.3-2.6,5.4-2.6v0c2.1,0,4.2,0.9,5.4,2.6l46.2,66
		c1.4,2,1.6,4.7,0.5,6.8c-1.2,2.2-3.4,3.5-5.9,3.5h-9.3l32.1,42.2c1.5,2,1.8,4.7,0.6,6.9c-1.1,2.3-3.4,3.7-5.9,3.7h-16.7l31,41.5
		C335.3,326,335.6,328.7,334.4,330.9z"/>
</g>
</svg>
