<?xml version="1.0" encoding="utf-8"?>
<!-- Generator: Adobe Illustrator 25.0.1, SVG Export Plug-In . SVG Version: 6.00 Build 0)  -->
<svg version="1.1" id="Color" xmlns="http://www.w3.org/2000/svg" xmlns:xlink="http://www.w3.org/1999/xlink" x="0px" y="0px"
	 viewBox="0 0 512 512" style="enable-background:new 0 0 512 512;" xml:space="preserve">
<style type="text/css">
	.st0{fill:#DAD8D2;}
</style>
<path class="st0" d="M445.1,421.8L370,321.1h40.6c6.1,0,11.6-3.4,14.3-8.9c2.8-5.5,2.2-12-1.5-16.8l-77.9-102.3H368
	c6,0,11.4-3.3,14.2-8.6c2.7-5.3,2.3-11.7-1.1-16.6l-112-160c-3-4.2-8.1-6.4-13.1-6.4v0c-5.1,0-10.1,2.1-13.1,6.4c0,0,0,0,0,0
	l-112,160c-1.9,2.8-2.9,6-2.9,9.2c0,0.7,0,1.4,0.1,2.2c0.1,1.1,0.4,2.1,0.8,3.2c0.2,0.7,0.5,1.4,0.9,2c2.8,5.3,8.2,8.6,14.2,8.6
	h22.6h0L88.9,295l-0.3,0.4c-2.1,2.7-3.2,5.9-3.3,9.2c-0.1,2.6,0.5,5.2,1.7,7.6c1,2.1,2.4,3.8,4.1,5.2c0.6,0.5,1.2,0.9,1.8,1.3
	c0.9,0.6,1.9,1.1,3,1.4c1.7,0.6,3.6,1,5.4,1h40.9h0.1l-18.6,25.5l-56.4,76.9c-3.6,4.9-4.1,11.3-1.3,16.7c2.8,5.4,8.3,8.7,14.3,8.7
	l0.1,0c0,0,0,0,0,0h0.1l1.9,0l139.1-0.6v0v37c0,14.7,8.6,26.7,19.2,26.7H256h15.4c10.6,0,19.2-11.9,19.2-26.7V448l141.7-0.6
	c6,0,11.5-3.5,14.2-8.9C449.3,433.1,448.7,426.6,445.1,421.8z"/>
</svg>
