<svg xmlns="http://www.w3.org/2000/svg" width="15.741" height="14.692" viewBox="0 0 15.741 14.692"><defs><style>.a{fill:#f3efe6;}</style></defs><g transform="translate(0 -15.99)"><path class="a" d="M9.148,16.042a.523.523,0,0,0-.555.063l-5.1,4.083H1.049A1.051,1.051,0,0,0,0,21.238v4.2a1.05,1.05,0,0,0,1.049,1.049H3.488l5.1,4.083a.525.525,0,0,0,.556.062.524.524,0,0,0,.3-.472V16.516A.526.526,0,0,0,9.148,16.042Z"/><path class="a" d="M342.645,122.4a.525.525,0,0,0-.738.747,4.185,4.185,0,0,1,0,5.927.524.524,0,1,0,.738.745,5.234,5.234,0,0,0,0-7.419Z" transform="translate(-330.544 -102.778)"/><path class="a" d="M387.762,77.277a.525.525,0,0,0-.74.745,6.262,6.262,0,0,1,0,8.887.525.525,0,0,0,.74.745,7.313,7.313,0,0,0,0-10.378Z" transform="translate(-374.181 -59.13)"/></g></svg>