<?xml version="1.0" encoding="utf-8"?>
<!-- Generator: Adobe Illustrator 25.0.0, SVG Export Plug-In . SVG Version: 6.00 Build 0)  -->
<svg version="1.1" id="Layer_1" xmlns="http://www.w3.org/2000/svg" xmlns:xlink="http://www.w3.org/1999/xlink" x="0px" y="0px"
	 viewBox="0 0 15.7 14.7" style="enable-background:new 0 0 15.7 14.7;" xml:space="preserve">
<style type="text/css">
	.st0{fill:#DAD8D2;}
</style>
<g transform="translate(0 -15.99)">
	<path class="st0" d="M9.1,16C9,16,8.8,16,8.6,16.1l-5.1,4.1H1c-0.6,0-1,0.5-1,1.1v4.2c0,0.6,0.5,1,1,1h2.4l5.1,4.1
		c0.2,0.1,0.4,0.2,0.6,0.1c0.2-0.1,0.3-0.3,0.3-0.5V16.5C9.4,16.3,9.3,16.1,9.1,16z"/>
	<path class="st0" d="M12.1,19.6c-0.2-0.2-0.5-0.2-0.7,0c-0.2,0.2-0.2,0.5,0,0.7c1.6,1.6,1.6,4.3,0,5.9c0,0,0,0,0,0
		c-0.2,0.2-0.2,0.5,0,0.7c0.2,0.2,0.5,0.2,0.7,0C14.1,25,14.2,21.7,12.1,19.6C12.1,19.6,12.1,19.6,12.1,19.6z"/>
	<path class="st0" d="M13.6,18.1c-0.2-0.2-0.5-0.2-0.7,0c-0.2,0.2-0.2,0.5,0,0.7l0,0c2.5,2.4,2.5,6.4,0,8.9c0,0,0,0,0,0
		c-0.2,0.2-0.2,0.5,0,0.7c0.2,0.2,0.5,0.2,0.7,0C16.4,25.7,16.5,21,13.6,18.1C13.6,18.2,13.6,18.2,13.6,18.1L13.6,18.1z"/>
</g>
</svg>
