{
	"asset":{
		"version":"2.0",
		"generator":"Created using the official Cinema 4D glTF Exporter 1.000x284978"
	},
	"scenes":[{
		"nodes":[0]
	}],
	"nodes":[{
		"name":"Subdivision Surface",
		"translation":[0.0,
		1950.0,
		0.0],
		"rotation":[0.0,
		0.0,
		0.0,
		-1.0],
		"scale":[1.0,
		1.0,
		1.0],
		"children":[1]
	},
	{
		"name":"Null",
		"translation":[0.0,
		1368.830322265625,
		0.0],
		"rotation":[0.0,
		0.0,
		0.0,
		-1.0],
		"scale":[1.0,
		1.0,
		1.0],
		"children":[2,
		3,
		4,
		5]
	},
	{
		"name":"Cone",
		"mesh":0
	},
	{
		"name":"Cone",
		"translation":[0.0,
		-569.3235473632813,
		0.0],
		"rotation":[0.0,
		0.3420201539993286,
		0.0,
		-0.9396926164627075],
		"scale":[1.0,
		1.0,
		1.0],
		"mesh":1
	},
	{
		"name":"Cone.1",
		"translation":[0.37505999207496645,
		-1206.0206298828126,
		14.24780559539795],
		"rotation":[-6.493608983859644e-10,
		0.08715574443340302,
		7.4222290535885808e-9,
		-0.9961947202682495],
		"scale":[1.0,
		1.0,
		1.0],
		"mesh":2
	},
	{
		"name":"Cone.1",
		"translation":[0.3750472068786621,
		-2078.060302734375,
		14.247803688049317],
		"rotation":[0.0,
		0.08715574443340302,
		0.0,
		-0.9961947202682495],
		"scale":[1.0,
		1.0,
		1.0],
		"mesh":3
	}],
	"meshes":[{
		"name":"Cone",
		"primitives":[{
			"attributes":{
				"POSITION":1
			},
			"indices":0,
			"material":0
		}]
	},
	{
		"name":"Cone",
		"primitives":[{
			"attributes":{
				"POSITION":3
			},
			"indices":2,
			"material":0
		}]
	},
	{
		"name":"Cone.1",
		"primitives":[{
			"attributes":{
				"POSITION":5
			},
			"indices":4,
			"material":0
		}]
	},
	{
		"name":"Cone.1",
		"primitives":[{
			"attributes":{
				"POSITION":7
			},
			"indices":6,
			"material":0
		}]
	}],
	"accessors":[{
		"bufferView":0,
		"type":"SCALAR",
		"componentType":5123,
		"count":72960,
		"byteOffset":0,
		"min":[0],
		"max":[12281]
	},
	{
		"bufferView":1,
		"type":"VEC3",
		"componentType":5126,
		"count":12282,
		"byteOffset":0,
		"min":[-1000.0,
		-1000.0,
		-951.0565185546875],
		"max":[1000.0,
		774.0536499023438,
		951.0565185546875]
	},
	{
		"bufferView":2,
		"type":"SCALAR",
		"componentType":5123,
		"count":57600,
		"byteOffset":0,
		"min":[0],
		"max":[9741]
	},
	{
		"bufferView":3,
		"type":"VEC3",
		"componentType":5126,
		"count":9742,
		"byteOffset":0,
		"min":[-1382.18359375,
		-1382.18359375,
		-1314.53466796875],
		"max":[1382.18359375,
		831.4688720703125,
		1314.53466796875]
	},
	{
		"bufferView":4,
		"type":"SCALAR",
		"componentType":5123,
		"count":57600,
		"byteOffset":0,
		"min":[0],
		"max":[9741]
	},
	{
		"bufferView":5,
		"type":"VEC3",
		"componentType":5126,
		"count":9742,
		"byteOffset":0,
		"min":[-1732.7919921875,
		-1732.7919921875,
		-1647.983154296875],
		"max":[1732.7919921875,
		1042.381591796875,
		1647.983154296875]
	},
	{
		"bufferView":6,
		"type":"SCALAR",
		"componentType":5123,
		"count":57600,
		"byteOffset":0,
		"min":[0],
		"max":[9741]
	},
	{
		"bufferView":7,
		"type":"VEC3",
		"componentType":5126,
		"count":9742,
		"byteOffset":0,
		"min":[-2111.0078125,
		-2111.0078125,
		-2007.6878662109376],
		"max":[2111.0078125,
		1269.90185546875,
		2007.6878662109376]
	}],
	"bufferViews":[{
		"buffer":0,
		"byteOffset":0,
		"byteLength":145920,
		"target":34963
	},
	{
		"buffer":0,
		"byteOffset":145920,
		"byteLength":147384,
		"target":34962
	},
	{
		"buffer":1,
		"byteOffset":0,
		"byteLength":115200,
		"target":34963
	},
	{
		"buffer":1,
		"byteOffset":115200,
		"byteLength":116904,
		"target":34962
	},
	{
		"buffer":2,
		"byteOffset":0,
		"byteLength":115200,
		"target":34963
	},
	{
		"buffer":2,
		"byteOffset":115200,
		"byteLength":116904,
		"target":34962
	},
	{
		"buffer":3,
		"byteOffset":0,
		"byteLength":115200,
		"target":34963
	},
	{
		"buffer":3,
		"byteOffset":115200,
		"byteLength":116904,
		"target":34962
	}],
	"buffers":[{
		"uri":"data:application/octet-stream;base64,",
		"byteLength":293304
	},
	{
		"uri":"data:application/octet-stream;base64,",
		"byteLength":232104
	},
	{
		"uri":"data:application/octet-stream;base64,",
		"byteLength":232104
	},
	{
		"uri":"data:application/octet-stream;base64,",
		"byteLength":232104
	}],
	"materials":[{
		"pbrMetallicRoughness":{
			"baseColorFactor":[0.5582666666666667,
			0.8,
			0.40800000000000005,
			1.0],
			"metallicFactor":0.0,
			"roughnessFactor":0.5
		},
		"emissiveFactor":[0.0,
		0.0,
		0.0],
		"alphaMode":"OPAQUE",
		"doubleSided":false,
		"name":"Mat"
	}]
}